<?xml version="1.0" encoding="UTF-8" standalone="no"?>
<!-- Created with Inkscape (http://www.inkscape.org/) -->

<svg
   xmlns:dc="http://purl.org/dc/elements/1.1/"
   xmlns:cc="http://creativecommons.org/ns#"
   xmlns:rdf="http://www.w3.org/1999/02/22-rdf-syntax-ns#"
   xmlns:svg="http://www.w3.org/2000/svg"
   xmlns="http://www.w3.org/2000/svg"
   xmlns:sodipodi="http://sodipodi.sourceforge.net/DTD/sodipodi-0.dtd"
   xmlns:inkscape="http://www.inkscape.org/namespaces/inkscape"
   width="1920mm"
   height="3800mm"
   viewBox="0 0 1920 3800"
   version="1.1"
   id="svg1642"
   inkscape:version="0.92.5 (2060ec1f9f, 2020-04-08)"
   sodipodi:docname="drawing-giant.svg">
  <defs
     id="defs1636" />
  <sodipodi:namedview
     id="base"
     pagecolor="#ffffff"
     bordercolor="#666666"
     borderopacity="1.0"
     inkscape:pageopacity="0.0"
     inkscape:pageshadow="2"
     inkscape:zoom="0.056568542"
     inkscape:cx="5402.7592"
     inkscape:cy="14074.738"
     inkscape:document-units="mm"
     inkscape:current-layer="layer1"
     showgrid="false"
     inkscape:window-width="1920"
     inkscape:window-height="1027"
     inkscape:window-x="1912"
     inkscape:window-y="-8"
     inkscape:window-maximized="1"
     inkscape:lockguides="true"
     showguides="true"
     inkscape:guide-bbox="true">
    <sodipodi:guide
       position="0,3800"
       orientation="1,0"
       id="guide2223"
       inkscape:locked="true"
       inkscape:label=""
       inkscape:color="rgb(0,0,255)" />
    <sodipodi:guide
       position="0,0"
       orientation="0,1"
       id="guide2225"
       inkscape:locked="true"
       inkscape:label=""
       inkscape:color="rgb(0,0,255)" />
    <sodipodi:guide
       position="1920,0"
       orientation="1,0"
       id="guide2227"
       inkscape:locked="true"
       inkscape:label=""
       inkscape:color="rgb(0,0,255)" />
    <sodipodi:guide
       position="1900,3800"
       orientation="0,1"
       id="guide2231"
       inkscape:locked="true"
       inkscape:label=""
       inkscape:color="rgb(0,0,255)" />
    <sodipodi:guide
       position="-959.99999,-1900"
       orientation="1,0"
       id="guide2235"
       inkscape:locked="true"
       inkscape:label=""
       inkscape:color="rgb(0,0,255)" />
    <sodipodi:guide
       position="959.99999,1900"
       orientation="0,1"
       id="guide2237"
       inkscape:locked="true"
       inkscape:label=""
       inkscape:color="rgb(0,0,255)" />
  </sodipodi:namedview>
  <metadata
     id="metadata1639">
    <rdf:RDF>
      <cc:Work
         rdf:about="">
        <dc:format>image/svg+xml</dc:format>
        <dc:type
           rdf:resource="http://purl.org/dc/dcmitype/StillImage" />
        <dc:title />
      </cc:Work>
    </rdf:RDF>
  </metadata>
  <g
     inkscape:label="Layer 1"
     inkscape:groupmode="layer"
     id="layer1"
     transform="translate(0,3503)"
     style="display:inline">
    <path
       style="opacity:1;fill:#747474;fill-opacity:1;stroke:#ffe400;stroke-width:20.0478611;stroke-miterlimit:4;stroke-dasharray:none;stroke-dashoffset:0;stroke-opacity:0.1372549"
       d="M 1046.1797,-911.34846 H -647.86387 v -944.25444 c 0,-519.3407 0.89941,-944.2549 1.99886,-944.2549 1.09945,0 79.52062,45.1303 174.27052,100.2895 l 172.27093,100.2895 519.11318,-100.2895 519.11235,-100.2895 h 88.48365 c 81.73552,0 88.45635,-0.5379 88.12142,-7.0172 -0.19696,-3.8591 -6.96569,-33.1371 -15.03597,-65.0627 l -14.67326,-58.0453 -108.25845,-10.9468 -108.25845,-10.9468 -246.58824,-67.5237 -246.58906,-67.5245 -411.98374,137.1925 -411.98374,137.1918 v -945.9321 -945.9322 H 1046.1797 2740.2218 v 942.2497 c 0,518.2372 -0.7197,942.2498 -1.5925,942.2498 -0.876,0 -41.4629,-55.8224 -90.193,-124.0486 -88.0184,-123.2323 -88.6875,-124.0378 -101.6543,-122.4338 -7.1793,0.8874 -151.9846,4.5661 -321.7899,8.1736 l -308.7376,6.5587 -350.8377,100.0152 c -192.9604,55.0079 -353.4132,100.9034 -356.5622,101.9893 -6.6322,2.2866 0.644,7.4633 66.5697,47.3638 l 44.8067,27.1179 321.8089,85.8165 321.8097,85.8165 386.4206,-98.1604 c 212.5322,-53.9888 387.2156,-98.1612 388.1863,-98.1612 0.9706,0 1.7653,424.9142 1.7653,944.2549 v 944.25444 z m 1412.2112,-1394.77424 -12.8729,-61.5901 -86.2059,-38.2351 c -47.4132,-21.0288 -89.8142,-37.9524 -94.2248,-37.6069 -8.9486,0.6971 -169.9054,46.8261 -172.5179,49.4386 -0.9139,0.913 14.3913,32.0893 34.0108,69.2802 l 35.6716,67.6207 79.0319,50.089 79.0318,50.09 75.632,-37.6485 c 49.2576,-24.5205 75.5775,-39.7771 75.4744,-43.7482 -0.09,-3.3544 -5.9516,-33.8145 -13.031,-67.6897 z m -78.616,-1138.2265 -32.2264,-43.8695 -95.9653,18.6597 -95.9652,18.6593 -88.6071,83.2244 c -48.7347,45.7727 -88.6079,85.555 -88.6079,88.4048 0,4.7326 22.4866,62.1825 25.5304,65.2262 1.9951,1.9951 235.8999,-30.9117 240.8168,-33.8788 2.3649,-1.4269 41.8682,-33.9759 87.7873,-72.3315 50.9214,-42.5351 82.7031,-71.7828 81.4754,-74.981 -1.1069,-2.8847 -16.5143,-24.9857 -34.238,-49.1136 z m -107.6704,-462.3293 c -3.8597,-0.099 -82.2803,-9.6776 -174.2683,-21.2872 l -167.2518,-21.1101 -29.7229,30.3093 c -16.3475,16.6706 -189.6279,201.3915 -385.0675,410.4912 -253.7547,271.4913 -355.2657,382.6815 -355.0717,388.9279 0.152,4.8114 4.2091,32.6082 9.0213,61.7712 l 8.7502,53.0242 316.5602,-154.101 316.5609,-154.1009 205.2777,-176.355 205.2785,-176.3557 16.4348,-69.3954 c 9.0395,-38.1677 21.6661,-91.0477 28.0596,-117.511 6.3929,-26.463 11.8105,-49.4681 12.0394,-51.1213 0.2273,-1.6541 -2.7414,-3.0877 -6.6004,-3.1862 z m -117.417,1905.1912 c -35.1943,-111.8864 -58.847,-180.8672 -63.151,-184.167 -3.7839,-2.902 -118.7466,-81.5743 -255.4731,-174.8255 l -248.5933,-169.5483 -224.3237,-100.7117 c -123.3779,-55.392 -224.8548,-100.1812 -225.504,-99.5318 -0.6517,0.6516 51.5799,107.9221 116.065,238.3831 l 117.2458,237.2024 174.4161,154.9134 c 95.9289,85.2012 194.3165,172.5702 218.64,194.1522 l 44.2231,39.2405 199.0706,26.439 c 109.489,14.5413 200.1025,26.4389 201.3634,26.4389 4.7774,0 0.8471,-13.689 -53.9789,-187.9852 z m -467.5689,-2171.7575 c -46.6509,-39.7269 -51.3851,-42.7669 -59.141,-37.9789 -26.3973,16.2963 -134.7604,98.0747 -134.9051,101.8096 -0.091,2.442 -7.0915,53.1567 -15.5483,112.6985 -8.4568,59.5429 -14.9776,108.7276 -14.4906,109.2997 0.4849,0.5758 37.6585,-18.3724 82.6046,-42.1001 l 81.7202,-43.142 54.901,-74.1772 c 30.1957,-40.7969 55.0517,-76.2124 55.2359,-78.7009 0.1818,-2.4882 -22.486,-23.9573 -50.3767,-47.7087 z m -156.8826,2430.4745 -51.0244,-83.6364 -96.0464,-35.4982 c -52.8248,-19.524 -96.326,-35.114 -96.6676,-34.6458 -0.3411,0.4697 -18.9808,25.0289 -41.419,54.5774 -40.5089,53.347 -40.743,53.785 -33.2477,62.1486 4.1515,4.6325 54.1128,64.3565 111.0248,132.7197 56.9121,68.3633 105.9247,126.9619 108.9162,130.2185 4.7032,5.1191 15.2201,-3.8461 77.5618,-66.1158 39.6672,-39.621 72.0784,-72.9589 72.0246,-74.0849 -0.076,-1.1258 -23.058,-39.683 -51.1223,-85.6831 z m -448.9745,-926.0673 c -25.9111,-20.781 -48.226,-36.659 -49.589,-35.2846 -1.3631,1.3745 -8.4829,33.4698 -15.8212,71.3237 l -13.3426,68.8248 14.9967,33.419 c 33.0045,73.5491 35.0091,76.5988 55.8557,84.9655 10.5404,4.2302 20.3163,6.5399 21.7242,5.1321 2.311,-2.3118 31.8376,-167.4399 32.8614,-183.7815 0.2576,-4.1575 -17.9526,-21.5569 -46.6852,-44.599 z m -9.4831,-297.4174 c -21.8982,-19.8475 -41.1711,-36.5521 -42.8297,-37.1218 -2.8746,-0.9874 -25.0245,117.1199 -24.9193,132.8743 0,4.1476 12.0529,34.4821 26.7211,67.4094 l 26.6693,59.8685 16.4306,-2.6573 c 9.0379,-1.4618 20.9432,-4.754 26.4563,-7.3151 l 10.0238,-4.657 2.0049,-82.1483 c 1.1024,-45.181 1.3873,-83.9517 0.6289,-86.1573 -0.7577,-2.2051 -19.2898,-20.2485 -41.189,-40.0954 z m 9.7105,1581.5108 c -16.9653,-11.9823 -33.14,-23.1943 -35.9449,-24.9151 -3.2769,-2.0102 -22.8613,9.7859 -54.79049,33.0015 l -49.69093,36.1293 -2.5377,21.1282 c -1.39561,11.6204 -2.55335,38.939 -2.5724,60.7074 l -0.0758,39.5792 35.08381,61.6242 c 19.296,33.8932 36.24151,61.6415 37.65681,61.6626 1.4156,0 19.116,-19.358 39.3353,-43.0645 l 36.7618,-43.1034 -2.2496,-29.6858 -2.249,-29.6864 16.0394,-13.7291 16.0394,-13.7289 v -47.0663 -47.067 z m -17.2676,-362.6208 c -23.1536,-19.4961 -44.9391,-37.8343 -48.411,-40.7529 -5.3971,-4.5364 -9.4683,-2.9567 -28.06721,10.8913 -11.96434,8.9078 -22.92702,20.178 -24.3613,25.044 -1.43448,4.8668 -2.7815,40.4233 -2.99536,79.0153 L 960,-1603 l 38.52227,48.115 c 21.18733,26.463 41.95503,52.4504 46.15263,57.7492 4.1974,5.2979 8.6178,8.6469 9.8232,7.4415 4.0937,-4.0939 56.8159,-217.5406 54.3131,-219.8896 -1.3691,-1.2843 -21.4341,-18.2858 -44.5884,-37.7811 z m 26.711,-1487.5315 -13.1714,-52.1247 -45.8612,-16.4947 c -53.78797,-19.3459 -49.7985,-22.0759 -53.91905,36.9031 -2.75274,39.392 -2.65722,39.9966 11.04669,69.9605 7.60213,16.6241 21.49946,53.2603 30.88156,81.414 16.4354,49.3205 17.3574,50.9897 25.2668,45.7373 13.4814,-8.9517 59.156,-87.1449 59.0348,-101.0656 -0.076,-6.7134 -6.0337,-35.6618 -13.2782,-64.3299 z m -11.1885,865.0651 c -11.3932,-27.0148 -21.8158,-49.1173 -23.1614,-49.1173 -2.5488,0 -51.7112,56.5891 -67.71334,77.943 -5.85041,7.8067 -8.40007,15.4621 -7.00514,21.0365 3.27792,13.1046 66.18488,163.1125 70.00428,166.9322 1.8162,1.8163 7.0942,-10.8096 11.7281,-28.0582 4.6345,-17.248 14.5805,-53.9145 22.1025,-81.4802 7.5218,-27.5656 13.9199,-51.9239 14.2185,-54.1288 0.2954,-2.2058 -8.7797,-26.1125 -20.1735,-53.1272 z m -1.1547,-1884.5555 c -21.8824,-58.9123 -21.5883,-58.6546 -53.9569,-47.2336 -14.4804,5.1093 -18.6047,5.1093 -33.08463,0 -25.97224,-9.1638 -26.66475,-8.6637 -29.40991,21.2281 -1.47081,16.0128 -7.22405,38.1783 -14.09044,54.2819 l -11.60453,27.2179 34.82165,73.8536 c 19.15122,40.6188 36.12636,73.4794 37.72126,73.0217 3.5354,-1.0138 91.2619,-144.3347 90.1239,-147.2383 -0.4471,-1.1344 -9.6783,-25.9434 -20.5204,-55.1313 z m 7.2415,653.9682 c -1.4632,-20.206 -3.7659,-38.3585 -5.1184,-40.3392 -1.3517,-1.9815 -16.5349,-8.547 -33.7399,-14.5914 -17.2045,-6.0434 -33.5837,-11.8718 -36.397,-12.9515 -3.3673,-1.292 -14.40943,17.7888 -32.31355,55.8404 l -27.19818,57.8038 13.33274,61.2143 c 7.33239,33.6675 15.5234,63.4055 18.2019,66.0848 5.67988,5.6791 57.06479,28.0825 58.90809,25.6828 0.6894,-0.8934 12.3396,-26.8846 25.895,-57.7576 23.065,-52.5279 24.5342,-57.6795 22.8679,-80.192 -0.979,-13.2313 -2.9763,-40.5891 -4.4386,-60.7944 z m -4.96,1570.3997 c -2.6422,-28.0953 -4.253,-32.0483 -24.5117,-60.1436 -11.9257,-16.5394 -22.3876,-30.9586 -23.2484,-32.043 -0.8607,-1.0844 -3.3262,1.1744 -5.4779,5.0198 -2.1518,3.8454 -17.3528,14.3686 -33.78003,23.3838 l -29.86767,16.3932 v 56.5801 56.58 l 37.0069,65.0967 c 20.3537,35.8037 37.8315,64.2709 38.8409,63.2617 1.0091,-1.0093 11.3082,-24.8024 22.8861,-52.8741 22.9352,-55.6025 24.8234,-70.2992 18.1518,-141.2546 z m -5.3145,-1884.3474 -8.7118,-20.9644 8.3881,-25.8025 8.3893,-25.8024 -36.1994,-18.1813 c -19.9102,-10.0003 -38.2586,-17.3305 -40.7734,-16.2901 -2.5157,1.0402 -18.53541,24.2414 -35.59988,51.5586 l -31.0269,49.6667 14.0609,65.9826 c 13.69041,64.2458 14.45424,66.3257 29.02123,79.0583 19.38625,16.9449 26.99685,18.6564 53.33245,11.9978 l 21.7709,-5.5057 12.6144,-53.8893 c 15.4678,-66.0727 15.4639,-66.0084 4.7341,-91.8283 z m -114.57861,1192.5198 c -6.12452,2.3459 -299.93885,160.2097 -658.57199,353.8444 -62.85015,33.9341 -116.52739,63.9328 -119.28243,66.6628 -5.97002,5.9164 -382.50183,636.9448 -380.96898,638.4641 0.58344,0.5758 120.14397,-34.3373 265.691386,-77.5876 l 264.631444,-78.638 294.3698,-384.1244 c 265.21738,-346.0836 295.46918,-384.1255 305.46949,-384.1255 6.10421,0 15.65813,-1.7336 21.23113,-3.8521 9.68588,-3.6826 10.19056,-5.492 11.45742,-41.0978 3.42795,-96.3509 3.60227,-92.4683 -4.02727,-89.5459 z m -149.4765,-502.0099 c -41.57367,-108.6026 -77.95058,-200.7346 -80.8376,-204.7392 -2.88692,-4.0045 -88.52223,-108.2092 -190.30146,-231.5658 l -185.05356,-224.2857 -269.047402,-89.5414 c -147.975798,-49.2477 -270.765808,-88.9427 -272.866168,-88.2108 -2.1004,0.735 87.27656,140.243 198.614675,310.0242 l 202.432195,308.6936 262.59808,158.4214 c 257.5039,155.3488 263.77932,159.4329 323.45536,210.5467 33.47133,28.6682 65.05733,55.455 70.19084,59.5246 11.08391,8.7887 23.3142,5.9656 19.18082,-4.4265 -1.52746,-3.8408 -36.79239,-95.8396 -78.36578,-204.4411 z m -116.47818,1410.0588 c -19.23834,-17.7607 -13.99279,-18.8208 -87.52813,17.6904 l -49.75765,24.7054 -45.46958,106.1497 c -25.00845,58.3826 -45.46976,107.7454 -45.46976,109.695 0,2.8543 59.31765,139.4104 61.52488,141.6365 0.34102,0.3486 14.15571,-3.5786 30.69511,-8.722 16.53924,-5.1434 50.98047,-15.8104 76.53596,-23.7043 l 46.46457,-14.3534 2.64653,-135.6528 2.64673,-135.6529 11.9621,-21.7025 c 16.67207,-30.2465 15.87569,-41.5092 -4.25076,-60.0891 z m -69.95968,-2236.5117 c -9.98599,-71.8692 -19.45894,-131.8302 -21.05087,-133.2463 -5.39126,-4.7987 -141.29791,-65.0202 -142.96783,-63.351 -1.71849,1.7192 47.92234,247.7097 50.44018,249.9458 2.83095,2.5141 109.9581,77.277 120.70774,84.2403 10.4671,6.7808 11.0262,6.7861 11.0262,0.114 0,-3.8665 -8.16969,-65.8317 -18.15542,-137.7009 z M 40.780683,-2473.8201 c -4.96153,1.1729 -54.12886,8.8698 -109.261183,17.1046 -55.13136,8.234 -102.71736,17.2305 -105.74594,19.9907 -10.32234,9.407 -119.63704,180.1588 -116.19702,181.5016 1.88443,0.7349 57.10287,-9.8844 122.70882,-23.5982 l 119.28261,-24.9365 48.88030032,-82.6554 c 26.88449068,-45.4598 48.98700768,-84.204 49.11733768,-86.0968 0.128882,-1.8926 -3.822667,-2.4822 -8.784925,-1.31 z m -140.961753,-951.5311 -69.60971,-78.1869 -119.75146,-8.5554 c -65.86357,-4.7061 -120.34701,-8.0196 -121.07519,-7.3642 -1.05928,0.954 140.3166,174.5995 157.39245,193.318 3.61656,3.9644 26.92234,2.7944 113.69278,-5.7072 60.02839,-5.8812 109.10205,-11.7339 109.05205,-13.0054 -0.0759,-1.2722 -31.41578,-37.4962 -69.70092,-80.4989 z"
       id="path1539"
       inkscape:connector-curvature="0" />
  </g>
</svg>
