<?xml version="1.0" encoding="UTF-8" standalone="no"?>
<!-- Created with Inkscape (http://www.inkscape.org/) -->

<svg
   xmlns:dc="http://purl.org/dc/elements/1.1/"
   xmlns:cc="http://creativecommons.org/ns#"
   xmlns:rdf="http://www.w3.org/1999/02/22-rdf-syntax-ns#"
   xmlns:svg="http://www.w3.org/2000/svg"
   xmlns="http://www.w3.org/2000/svg"
   xmlns:sodipodi="http://sodipodi.sourceforge.net/DTD/sodipodi-0.dtd"
   xmlns:inkscape="http://www.inkscape.org/namespaces/inkscape"
   width="1900"
   height="1920"
   viewBox="0 0 502.70832 508.00002"
   version="1.1"
   id="svg8"
   inkscape:version="0.92.5 (2060ec1f9f, 2020-04-08)"
   sodipodi:docname="orange.svg">
  <defs
     id="defs2" />
  <sodipodi:namedview
     id="base"
     pagecolor="#ffffff"
     bordercolor="#666666"
     borderopacity="1.0"
     inkscape:pageopacity="0.0"
     inkscape:pageshadow="2"
     inkscape:zoom="0.040191506"
     inkscape:cx="-8212.7575"
     inkscape:cy="6586.6138"
     inkscape:document-units="mm"
     inkscape:current-layer="g2194"
     showgrid="false"
     units="px"
     showguides="true"
     inkscape:guide-bbox="true"
     inkscape:lockguides="true"
     inkscape:window-width="1920"
     inkscape:window-height="1027"
     inkscape:window-x="1912"
     inkscape:window-y="-8"
     inkscape:window-maximized="1">
    <sodipodi:guide
       position="251.354,0"
       orientation="1,0"
       id="guide828"
       inkscape:locked="true"
       inkscape:label=""
       inkscape:color="rgb(0,0,255)" />
    <sodipodi:guide
       position="0,234.81772"
       orientation="1,0"
       id="guide1525"
       inkscape:locked="true"
       inkscape:label=""
       inkscape:color="rgb(0,0,255)" />
    <sodipodi:guide
       position="-113.24166,0"
       orientation="0,1"
       id="guide1527"
       inkscape:locked="true"
       inkscape:label=""
       inkscape:color="rgb(0,0,255)" />
    <sodipodi:guide
       position="0.35346679,254.00001"
       orientation="0,1"
       id="guide1529"
       inkscape:locked="true" />
    <sodipodi:guide
       position="502.70832,254.19948"
       orientation="1,0"
       id="guide1531"
       inkscape:locked="true" />
    <sodipodi:guide
       position="0,508"
       orientation="0,1"
       id="guide1533"
       inkscape:locked="true"
       inkscape:label=""
       inkscape:color="rgb(0,0,255)" />
  </sodipodi:namedview>
  <metadata
     id="metadata5">
    <rdf:RDF>
      <cc:Work
         rdf:about="">
        <dc:format>image/svg+xml</dc:format>
        <dc:type
           rdf:resource="http://purl.org/dc/dcmitype/StillImage" />
        <dc:title />
      </cc:Work>
    </rdf:RDF>
  </metadata>
  <g
     inkscape:groupmode="layer"
     id="layer2"
     inkscape:label="overlay"
     transform="translate(0,254)"
     style="display:inline">
    <g
       id="g2194"
       transform="matrix(1.264644,0,0,1.264644,-66.519375,-0.02653847)"
       style="fill:#ff652f;fill-opacity:1;stroke:#ff652f;stroke-opacity:1">
      <g
         id="g2071">
        <g
           style="fill:#747474;fill-opacity:1;stroke:#747474;stroke-opacity:1;stroke-width:0.99965408;stroke-miterlimit:4;stroke-dasharray:none"
           id="g1505"
           transform="matrix(1.0861211,0,0,1.1339686,-20.629203,-149.02533)">
          <path
             inkscape:connector-curvature="0"
             id="path831"
             d="m 251.35399,113.77083 15.34601,-3.70416 2.64583,-26.987501 17.99167,-66.14583 -35.98351,-107.95 -26.45816,45.50833 26.45816,137.05416 z"
             style="fill:#747474;fill-opacity:1;stroke:#747474;stroke-width:0.99965408;stroke-linecap:butt;stroke-linejoin:miter;stroke-miterlimit:4;stroke-dasharray:none;stroke-opacity:1" />
          <path
             inkscape:connector-curvature="0"
             id="path833"
             d="m 322.79166,-11.641666 -2.64583,-26.9875 24.34167,-20.10833 -2.11667,29.63333 z"
             style="fill:#747474;fill-opacity:1;stroke:#747474;stroke-width:0.99965408;stroke-linecap:butt;stroke-linejoin:miter;stroke-miterlimit:4;stroke-dasharray:none;stroke-opacity:1" />
          <path
             inkscape:connector-curvature="0"
             id="path835"
             d="m 278.34167,110.59583 15.87499,-18.52084 41.80417,-69.32083 79.90416,-52.38749 -23.28333,69.84999 -60.325,49.74167 z"
             style="fill:#747474;fill-opacity:1;stroke:#747474;stroke-width:0.99965408;stroke-linecap:butt;stroke-linejoin:miter;stroke-miterlimit:4;stroke-dasharray:none;stroke-opacity:1" />
          <path
             inkscape:connector-curvature="0"
             id="path837"
             d="m 397.93333,77.787499 11.1125,-15.875 31.22083,-6.35 -7.9375,17.4625 z"
             style="fill:#747474;fill-opacity:1;stroke:#747474;stroke-width:0.99965408;stroke-linecap:butt;stroke-linejoin:miter;stroke-miterlimit:4;stroke-dasharray:none;stroke-opacity:1" />
          <path
             inkscape:connector-curvature="0"
             id="path839"
             d="m 416.98333,127 c 0,0 18.83971,-9.01346 18.46553,-8.73283 -0.37417,0.28063 5.51913,2.80633 5.51913,2.80633 l 7.57709,0.8419 -1.68381,5.0846 c 0,0 2.33862,5.86009 1.77736,5.86009 -0.56128,0 -13.65747,5.05139 -13.65747,5.05139 z"
             style="fill:#747474;fill-opacity:1;stroke:#747474;stroke-width:0.99965408;stroke-linecap:butt;stroke-linejoin:miter;stroke-miterlimit:4;stroke-dasharray:none;stroke-opacity:1" />
          <path
             inkscape:connector-curvature="0"
             id="path841"
             d="m 410.94024,127 -12.81557,-8.17157 -17.02506,3.64823 -3.46115,4.52334 1.30964,5.673 15.15418,3.46114 6.36104,-2.52569 6.17392,2.15152 z"
             style="fill:#747474;fill-opacity:1;stroke:#747474;stroke-width:0.99965408;stroke-linecap:butt;stroke-linejoin:miter;stroke-miterlimit:4;stroke-dasharray:none;stroke-opacity:1" />
          <path
             inkscape:connector-curvature="0"
             id="path843"
             d="m 179.3875,-43.391668 22.75416,14.81667 4.23334,27.51667 -20.6375,-12.17084 z"
             style="fill:#747474;fill-opacity:1;stroke:#747474;stroke-width:0.99965408;stroke-linecap:butt;stroke-linejoin:miter;stroke-miterlimit:4;stroke-dasharray:none;stroke-opacity:1" />
          <path
             inkscape:connector-curvature="0"
             id="path845"
             d="m 101.6,-30.691661 82.55,49.212501 55.09948,102.1953 -15.61042,-0.85989 -0.59531,-5.09323 -101.33542,-77.72135 z"
             style="fill:#747474;fill-opacity:1;stroke:#747474;stroke-width:0.99965408;stroke-linecap:butt;stroke-linejoin:miter;stroke-miterlimit:4;stroke-dasharray:none;stroke-opacity:1" />
          <path
             inkscape:connector-curvature="0"
             id="path847"
             d="m 68.527083,64.029165 17.594792,-7.805208 28.045835,12.038541 7.01146,14.684376 c 0,0 -2.51355,3.96875 -4.36563,3.96875 -1.85208,0 -7.14375,-3.43958 -7.14375,-3.43958 l -35.321873,-0.39688 z"
             style="fill:#747474;fill-opacity:1;stroke:#747474;stroke-width:0.99965408;stroke-linecap:butt;stroke-linejoin:miter;stroke-miterlimit:4;stroke-dasharray:none;stroke-opacity:1" />
          <path
             inkscape:connector-curvature="0"
             id="path849"
             d="M 130.175,164.04166 116.94583,153.9875 81.49166,183.62083 99.48333,201.6125 121.17917,188.38333 Z"
             style="fill:#747474;fill-opacity:1;stroke:#747474;stroke-width:0.99965408;stroke-linecap:butt;stroke-linejoin:miter;stroke-miterlimit:4;stroke-dasharray:none;stroke-opacity:1" />
          <path
             inkscape:connector-curvature="0"
             id="path851"
             d="m 121.17917,284.69166 6.87916,-51.85833 51.32917,-57.67917 60.325,-29.63333 L 213.78333,203.2 168.275,269.875 Z"
             style="fill:#747474;fill-opacity:1;stroke:#747474;stroke-width:0.99965408;stroke-linecap:butt;stroke-linejoin:miter;stroke-miterlimit:4;stroke-dasharray:none;stroke-opacity:1" />
          <path
             inkscape:connector-curvature="0"
             id="path853"
             d="m 196.32083,270.93333 -16.93333,8.99583 -12.7,20.10834 9.525,19.05 16.40416,-3.175 10.05417,-22.75417 z"
             style="fill:#747474;fill-opacity:1;stroke:#747474;stroke-width:0.99965408;stroke-linecap:butt;stroke-linejoin:miter;stroke-miterlimit:4;stroke-dasharray:none;stroke-opacity:1" />
          <path
             inkscape:connector-curvature="0"
             id="path855"
             d="m 256.40502,154.65591 -8.41899,13.75102 -22.56103,84.53473 25.92899,102.12917 33.33767,-23.8125 -2.11666,-85.19583 z"
             style="fill:#747474;fill-opacity:1;stroke:#747474;stroke-width:0.99965408;stroke-linecap:butt;stroke-linejoin:miter;stroke-miterlimit:4;stroke-dasharray:none;stroke-opacity:1" />
          <path
             inkscape:connector-curvature="0"
             id="path857"
             d="m 305.85833,258.76251 7.9375,-3.175 21.69583,23.28332 4.7625,24.34168 -11.64166,8.46665 -18.52084,-22.225 z"
             style="fill:#747474;fill-opacity:1;stroke:#747474;stroke-width:0.99965408;stroke-linecap:butt;stroke-linejoin:miter;stroke-miterlimit:4;stroke-dasharray:none;stroke-opacity:1" />
          <path
             inkscape:connector-curvature="0"
             id="path859"
             d="m 278.76211,149.9787 14.40582,-2.24507 107.9404,100.9747 -5.55625,44.71458 -30.42708,-7.14375 -46.30209,-53.975 z"
             style="fill:#747474;fill-opacity:1;stroke:#747474;stroke-width:0.99965408;stroke-linecap:butt;stroke-linejoin:miter;stroke-miterlimit:4;stroke-dasharray:none;stroke-opacity:1" />
          <path
             inkscape:connector-curvature="0"
             id="path861"
             d="m 395.2875,187.85415 28.04583,3.96875 12.96458,17.7271 -10.84792,12.7 -19.57916,-14.28751 z"
             style="fill:#747474;fill-opacity:1;stroke:#747474;stroke-width:0.99965408;stroke-linecap:butt;stroke-linejoin:miter;stroke-miterlimit:4;stroke-dasharray:none;stroke-opacity:1" />
          <path
             inkscape:connector-curvature="0"
             id="path863"
             d="m 364.07454,126.99998 -14.21874,-6.7684 c 0,0 -15.62092,3.52727 -15.8855,3.52727 -0.26459,0 -3.24115,6.9453 -3.24115,6.9453 l 14.88281,6.35 15.41198,-1.32292 z"
             style="fill:#747474;fill-opacity:1;stroke:#747474;stroke-width:0.99965408;stroke-linecap:butt;stroke-linejoin:miter;stroke-miterlimit:4;stroke-dasharray:none;stroke-opacity:1" />
          <path
             inkscape:connector-curvature="0"
             id="path865"
             d="M 286.41145,131.23333 299.24375,127 l 7.9375,-3.70417 10.71562,1.05834 -3.83646,10.84791 c 0,0 -14.41979,3.83646 -15.21354,3.70417 -0.79375,-0.13229 -12.43542,-7.14375 -12.43542,-7.67292 z"
             style="fill:#747474;fill-opacity:1;stroke:#747474;stroke-width:0.99965408;stroke-linecap:butt;stroke-linejoin:miter;stroke-miterlimit:4;stroke-dasharray:none;stroke-opacity:1" />
          <path
             inkscape:connector-curvature="0"
             id="path867"
             d="M 243.94583,133.87916 259.42396,127 275.96041,129.91042 266.7,139.96458 c 0,0 -19.97604,-0.39687 -21.03438,-0.39687 -1.05833,0 -1.71979,-5.68855 -1.71979,-5.68855 z"
             style="fill:#747474;fill-opacity:1;stroke:#747474;stroke-width:0.99965408;stroke-linecap:butt;stroke-linejoin:miter;stroke-miterlimit:4;stroke-dasharray:none;stroke-opacity:1" />
          <path
             inkscape:connector-curvature="0"
             id="path869"
             d="m 203.72918,137.84789 c 0.13229,-0.92604 1.85209,-4.49791 1.85209,-4.49791 l 13.75832,-6.34999 17.33021,3.43957 -8.99584,11.3771 z"
             style="fill:#747474;fill-opacity:1;stroke:#747474;stroke-width:0.99965408;stroke-linecap:butt;stroke-linejoin:miter;stroke-miterlimit:4;stroke-dasharray:none;stroke-opacity:1" />
          <path
             inkscape:connector-curvature="0"
             id="path871"
             d="m 187.19271,138.1125 11.64166,-5.02709 c 0,0 -10.45104,-9.12812 -10.98021,-9.12812 -0.52916,0 -21.16666,8.73125 -21.16666,8.73125 z"
             style="fill:#747474;fill-opacity:1;stroke:#747474;stroke-width:0.99965408;stroke-linecap:butt;stroke-linejoin:miter;stroke-miterlimit:4;stroke-dasharray:none;stroke-opacity:1" />
          <path
             inkscape:connector-curvature="0"
             id="path873"
             d="m 159.27915,130.17499 c -0.52916,-0.13229 -4.6302,-8.06979 -4.6302,-8.06979 l -14.15521,-0.26459 -15.74272,8.99584 13.36147,5.42395 14.02289,-0.92604 z"
             style="fill:#747474;fill-opacity:1;stroke:#747474;stroke-width:0.99965408;stroke-linecap:butt;stroke-linejoin:miter;stroke-miterlimit:4;stroke-dasharray:none;stroke-opacity:1" />
          <path
             inkscape:connector-curvature="0"
             id="path875"
             d="m 78.84583,132.55625 14.2875,-11.37708 19.31459,0.52916 3.96875,5.29167 -10.58334,12.43541 z"
             style="fill:#747474;fill-opacity:1;stroke:#747474;stroke-width:0.99965408;stroke-linecap:butt;stroke-linejoin:miter;stroke-miterlimit:4;stroke-dasharray:none;stroke-opacity:1" />
          <path
             inkscape:connector-curvature="0"
             id="path877"
             d="m 66.229387,131.22306 -5.94006,8.37222 c 0,0 -10.38342,0.42095 -10.99146,0.18709 -0.60804,-0.23386 -4.16272,-4.39659 -4.39658,-4.34982 -0.23387,0.0468 -7.01583,0.79513 -7.67064,0.42095 C 36.575837,135.47933 26.660137,127 26.660137,127 l 15.80899,-9.01346 14.68646,0.65481 z"
             style="fill:#747474;fill-opacity:1;stroke:#747474;stroke-width:0.99965408;stroke-linecap:butt;stroke-linejoin:miter;stroke-miterlimit:4;stroke-dasharray:none;stroke-opacity:1" />
        </g>
        <path
           style="fill:#747474;fill-opacity:1;stroke:#747474;stroke-width:1.50769532;stroke-linecap:butt;stroke-linejoin:miter;stroke-miterlimit:4;stroke-dasharray:none;stroke-opacity:1"
           d="m 471.46143,-2.172123 4.19955,6.0541699 c 0,0 7.34095,0.3043997 7.77083,0.1352895 l 8.53138,-2.8410667 c 0.46294,-0.27057192 7.47323,-6.4021956 7.47323,-6.4021956 l -11.17678,-6.5178621 -10.38314,0.47351 z"
           id="path877-3"
           inkscape:connector-curvature="0"
           sodipodi:nodetypes="cccccccc" />
      </g>
    </g>
  </g>
</svg>
