<?xml version="1.0" encoding="UTF-8" standalone="no"?>
<!-- Created with Inkscape (http://www.inkscape.org/) -->

<svg
   xmlns:dc="http://purl.org/dc/elements/1.1/"
   xmlns:cc="http://creativecommons.org/ns#"
   xmlns:rdf="http://www.w3.org/1999/02/22-rdf-syntax-ns#"
   xmlns:svg="http://www.w3.org/2000/svg"
   xmlns="http://www.w3.org/2000/svg"
   xmlns:sodipodi="http://sodipodi.sourceforge.net/DTD/sodipodi-0.dtd"
   xmlns:inkscape="http://www.inkscape.org/namespaces/inkscape"
   width="1900"
   height="1920"
   viewBox="0 0 502.70832 508.00002"
   version="1.1"
   id="svg8"
   inkscape:version="0.92.5 (2060ec1f9f, 2020-04-08)"
   sodipodi:docname="yellow.svg">
  <defs
     id="defs2" />
  <sodipodi:namedview
     id="base"
     pagecolor="#ffffff"
     bordercolor="#666666"
     borderopacity="1.0"
     inkscape:pageopacity="0.0"
     inkscape:pageshadow="2"
     inkscape:zoom="0.22735749"
     inkscape:cx="401.49466"
     inkscape:cy="681.87584"
     inkscape:document-units="mm"
     inkscape:current-layer="layer4"
     showgrid="false"
     units="px"
     showguides="true"
     inkscape:guide-bbox="true"
     inkscape:lockguides="true"
     inkscape:window-width="1920"
     inkscape:window-height="1027"
     inkscape:window-x="1912"
     inkscape:window-y="-8"
     inkscape:window-maximized="1">
    <sodipodi:guide
       position="251.354,0"
       orientation="1,0"
       id="guide828"
       inkscape:locked="true"
       inkscape:label=""
       inkscape:color="rgb(0,0,255)" />
    <sodipodi:guide
       position="0,234.81772"
       orientation="1,0"
       id="guide1525"
       inkscape:locked="true"
       inkscape:label=""
       inkscape:color="rgb(0,0,255)" />
    <sodipodi:guide
       position="-113.24166,0"
       orientation="0,1"
       id="guide1527"
       inkscape:locked="true"
       inkscape:label=""
       inkscape:color="rgb(0,0,255)" />
    <sodipodi:guide
       position="0.35346679,254.00001"
       orientation="0,1"
       id="guide1529"
       inkscape:locked="true" />
    <sodipodi:guide
       position="502.70832,254.19948"
       orientation="1,0"
       id="guide1531"
       inkscape:locked="true" />
    <sodipodi:guide
       position="0,508"
       orientation="0,1"
       id="guide1533"
       inkscape:locked="true"
       inkscape:label=""
       inkscape:color="rgb(0,0,255)" />
  </sodipodi:namedview>
  <metadata
     id="metadata5">
    <rdf:RDF>
      <cc:Work
         rdf:about="">
        <dc:format>image/svg+xml</dc:format>
        <dc:type
           rdf:resource="http://purl.org/dc/dcmitype/StillImage" />
        <dc:title />
      </cc:Work>
    </rdf:RDF>
  </metadata>
  <g
     inkscape:groupmode="layer"
     id="layer4"
     inkscape:label="final">
    <path
       style="fill:#08412a;fill-opacity:1;stroke:none;stroke-width:1.47445965"
       d="M -65.313462,253.68999 V -67.004973 H 93.3112 251.93587 l -2.87812,4.791994 c -1.58295,2.635596 -9.9876,17.613887 -18.67699,33.285093 L 214.58187,-0.43479231 233.14806,100.08732 c 15.97903,86.51456 18.56487,102.60713 18.55675,115.48472 l -0.009,14.9626 11.42706,-2.9252 c 6.28488,-1.60885 11.53826,-3.03459 11.6742,-3.16829 0.13594,-0.13373 0.99919,-8.5363 1.91838,-18.67246 1.33881,-14.76262 4.18071,-28.15869 14.28372,-67.32953 L 303.61174,89.539005 279.12829,12.880008 c -13.46647,-42.16245 -24.48402,-77.384845 -24.48402,-78.27199 0,-1.157584 44.33533,-1.612991 157.02998,-1.612991 H 568.7042 V 253.68999 574.38494 H 412.85378 c -87.81961,0 -155.23893,-0.55691 -154.44964,-1.27581 0.77041,-0.7017 10.58438,-8.12703 21.80881,-16.50073 l 20.40807,-15.22491 -0.83976,-12.61985 c -0.46184,-6.94093 -1.26616,-34.51555 -1.78731,-61.27698 l -0.94755,-48.65719 -17.56103,-64.13898 c -20.92129,-76.41192 -18.86654,-69.52105 -20.44003,-68.54859 -0.70643,0.43661 -3.92077,5.58841 -7.14295,11.44845 -5.02521,9.13917 -8.03966,19.25331 -21.19311,71.10751 l -15.33458,60.45282 17.35085,70.77408 c 9.54297,38.92573 17.38336,71.60343 17.42309,72.61713 0.0574,1.46341 -32.42562,1.84305 -157.694926,1.84305 H -65.313462 Z m 245.238432,249.86105 7.14,-16.89644 -3.15333,-11.79565 c -4.94263,-18.48884 -6.10132,-21.57328 -7.9234,-21.092 -0.93611,0.24727 -6.56543,3.10359 -12.50961,6.3474 -10.36097,5.65411 -11.16831,6.49474 -19.53659,20.3424 -4.80095,7.9445 -8.72899,15.08803 -8.72899,15.87452 0,0.78648 2.90373,7.64376 6.45273,15.23845 l 6.45274,13.80847 12.33323,-2.46538 12.33324,-2.46537 z M 368.04528,508 c 8.68237,-6.86302 8.64,-6.60523 4.54828,-27.67966 l -2.94747,-15.18103 -15.05251,-16.88846 c -8.27889,-9.28867 -15.742,-16.87106 -16.58466,-16.84981 -0.84266,0.0212 -3.90523,1.18242 -6.80566,2.5803 l -5.2735,2.54165 3.06182,22.4789 3.06181,22.47894 12.53293,16.16481 c 6.8931,8.89065 13.3027,16.19218 14.24356,16.22563 0.94089,0.0336 5.08781,-2.60862 9.2154,-5.87127 z m 84.689,-23.92569 c 0.46236,-2.63562 2.3149,-17.71339 4.11683,-33.50619 l 3.27619,-28.71421 -36.02221,-35.15474 C 404.2929,367.36408 370.63445,334.55638 349.30864,313.79321 l -38.77425,-37.75127 -10.37813,1.60639 c -5.70796,0.8835 -10.66473,1.89301 -11.01504,2.24333 -0.35031,0.35031 11.90725,27.52197 27.23906,60.38145 l 27.87604,59.74452 31.9934,38.8951 31.99339,38.89513 20.88355,5.39063 c 11.48593,2.96487 21.30732,5.453 21.82528,5.5292 0.51797,0.0763 1.32004,-2.01777 1.78234,-4.65338 z m -346.39738,-18.98676 32.71891,-10.50861 31.81397,-48.83837 31.81399,-48.8384 17.98264,-41.78732 c 9.89046,-22.983 17.7187,-42.05125 17.39612,-42.37381 -0.32259,-0.32262 -19.71951,9.25268 -43.10425,21.27839 l -42.51773,21.86494 -34.54023,40.41408 c -18.997113,22.22776 -35.123159,41.74113 -35.835636,43.36304 -0.712464,1.62191 -2.980423,16.88255 -5.039882,33.91258 -2.059447,17.02998 -4.133325,33.45181 -4.608593,36.49287 -0.475268,3.04107 -0.399298,5.52921 0.168829,5.52921 0.568127,0 15.756472,-4.72885 33.751862,-10.5086 z m 394.37251,-88.64258 c 4.14806,-5.06502 7.54192,-9.62132 7.54192,-10.12507 0,-0.50374 -4.1613,-6.80221 -9.2473,-13.9965 l -9.24734,-13.08061 -19.59416,-2.75358 c -10.77682,-1.51447 -19.92664,-2.42112 -20.33294,-2.0148 -0.40633,0.4063 2.61248,7.41686 6.70842,15.57899 7.16391,14.27575 7.9581,15.2351 20.87828,25.22049 7.38711,5.70915 13.95312,10.38023 14.59114,10.38023 0.63804,0 4.55392,-4.1441 8.70198,-9.20915 z M 58.893896,347.02473 c 8.03121,-5.02713 15.138991,-10.16931 15.795061,-11.42706 2.176518,-4.17264 11.866919,-32.08214 11.866919,-34.17812 0,-1.95402 -13.804911,-13.72037 -17.974814,-15.32052 -1.621049,-0.62205 -34.625599,26.67491 -48.343743,39.98349 l -3.654029,3.54491 13.207273,13.26876 c 7.263999,7.2978 13.498391,13.26875 13.854208,13.26875 0.355813,0 7.217919,-4.11311 15.249125,-9.14021 z M 227.43617,261.70935 c 3.78225,-4.91533 6.49444,-9.3193 6.02711,-9.78663 -0.46733,-0.46733 -6.34302,-1.97614 -13.05709,-3.35293 l -12.2074,-2.50323 -10.00644,4.96323 c -6.95351,3.44894 -10.45247,6.1363 -11.46832,8.80818 -0.80402,2.11474 -1.27414,4.0327 -1.0447,4.26215 0.42774,0.42774 29.95913,6.13233 33.12312,6.3984 0.9663,0.0812 4.85147,-3.87386 8.63372,-8.78917 z M -5.5480405,261.4598 c 2.2703038,-3.43068 4.1278275,-6.95557 4.1278275,-7.83312 0,-0.87754 -2.8952293,-5.70097 -6.4338407,-10.71872 l -6.4338443,-9.12317 h -10.87902 c -10.109441,0 -11.603185,0.43021 -21.116006,6.08168 -5.630343,3.34493 -10.557512,6.6003 -10.949266,7.23418 -0.391754,0.63387 2.677759,4.20042 6.821138,7.92568 6.112439,5.4956 8.572708,6.77319 13.043268,6.77319 3.637295,0 6.416831,1.0022 8.178583,2.94891 2.075388,2.29328 4.541285,2.94891 11.091032,2.94891 8.2689967,0 8.4974358,-0.11352 12.5501285,-6.23754 z m 66.0508565,-3.63078 8.013869,-9.86832 -3.144691,-4.85803 -3.144703,-4.858 -14.231702,-0.0182 -14.231706,-0.0182 -10.382173,8.47814 c -5.710195,4.66299 -10.418523,8.80989 -10.462946,9.21537 -0.04442,0.40549 8.709548,3.16203 19.453273,6.12568 10.743721,2.96363 19.665183,5.45178 19.825472,5.52922 0.160287,0.0774 3.897677,-4.29997 8.305307,-9.72756 z m 221.297204,1.67253 c 3.89168,-4.50769 6.83811,-8.39673 6.54767,-8.64228 -0.29044,-0.24556 -5.96614,-1.41229 -12.61266,-2.59271 l -12.08466,-2.14624 -11.13811,5.09826 c -9.7974,4.48456 -11.13812,5.57022 -11.13812,9.01916 0,6.52549 2.30969,7.4596 18.4444,7.4596 h 14.90573 z m 47.67559,4.14105 c 9.03323,-2.40248 9.87742,-2.98678 12.24856,-8.47815 5.35173,-12.39409 5.41033,-12.18655 -3.7646,-13.33289 -6.97367,-0.8713 -9.51122,-0.46403 -16.65084,2.67249 -4.63281,2.03526 -11.07732,4.51722 -14.32114,5.51547 -3.24381,0.99826 -6.48485,2.35506 -7.20234,3.01512 -1.24457,1.14501 15.75515,13.18826 18.616,13.18826 0.75487,0 5.73832,-1.16114 11.07436,-2.5803 z m -155.06492,-2.82696 8.59035,-3.93279 -7.95575,-7.12565 c -4.37566,-3.9191 -8.88028,-7.12565 -10.01029,-7.12565 -2.69792,0 -31.26116,12.26642 -31.28107,13.43359 -0.0163,0.96256 25.63885,8.37158 29.66429,8.5668 1.32116,0.0641 6.26778,-1.65325 10.99247,-3.8163 z m 341.56765,0.005 c 8.87366,-3.48147 9.88884,-4.27759 8.93065,-7.00368 -1.10955,-3.15671 -1.22051,-8.77244 -0.24931,-12.6172 0.40056,-1.58571 -1.23681,-2.39713 -6.08713,-3.01657 -3.64928,-0.46606 -8.11185,-1.66106 -9.91687,-2.65557 -2.8717,-1.58224 -4.96766,-0.96146 -16.77411,4.96807 -7.4208,3.72696 -12.91082,7.32828 -12.20004,8.00296 1.7659,1.67623 24.71074,16.24951 25.58438,16.24976 0.38538,1e-4 5.20598,-1.76739 10.71243,-3.92777 z M 397.074,262.34533 c 7.4836,-0.89926 7.52684,-0.93505 9.83073,-8.13954 l 2.31409,-7.23632 -10.34538,-5.20985 -10.34542,-5.20985 -11.72585,2.53352 c -11.13639,2.40617 -11.83494,2.79464 -13.89626,7.72811 -1.19375,2.85703 -1.9729,5.78728 -1.73143,6.51167 0.73918,2.2175 19.25709,9.86676 23.95948,9.89703 2.43286,0.0156 7.80589,-0.378 11.94004,-0.87477 z m -275.42156,-5.09611 c 5.75157,-4.22976 7.82695,-7.24474 4.98693,-7.24474 -0.66075,0 -2.26229,-2.22478 -3.55897,-4.94397 -2.23503,-4.68691 -2.87001,-4.99645 -12.21263,-5.95363 -10.55926,-1.08184 -10.917076,-0.95245 -29.469646,10.6566 l -5.894987,3.68869 8.843912,4.06107 c 7.044088,3.23457 11.110299,4.08403 19.980491,4.17398 10.21208,0.10352 11.65031,-0.26486 17.3249,-4.438 z m 336.46728,2.69357 c 1.21641,-0.0848 3.67541,0.33387 5.46444,0.93039 2.81947,0.94011 3.74397,0.11518 6.94028,-6.19236 l 3.68749,-7.27695 -9.88919,-6.5243 -9.88917,-6.52432 -12.13857,2.76888 c -14.33946,3.27092 -18.56164,7.2142 -16.38423,15.30197 1.10237,4.09468 2.2329,4.90031 9.72447,6.9298 4.7259,1.28025 11.08694,1.95232 14.37493,1.51878 3.24383,-0.42774 6.8931,-0.8471 8.10955,-0.93189 z m 94.7814,-1.60535 c 4.90299,-2.05462 14.33253,-9.32542 14.32344,-11.04434 -0.004,-0.53612 -3.48625,-2.84681 -7.74091,-5.13483 -6.135,-3.29921 -9.24889,-4.062 -15.04805,-3.68615 -6.68666,0.43336 -7.6791,0.99708 -11.59991,6.58884 -4.28538,6.11174 -4.28622,6.11736 -1.58517,10.68983 2.4276,4.10962 3.42474,4.57491 9.80419,4.57491 3.90596,0 9.23684,-0.89473 11.84641,-1.98826 z M 199.54545,165.13061 161.01609,90.578586 103.51217,54.813416 C 71.885003,35.142572 45.840332,19.75735 45.635118,20.624038 c -0.205214,0.866686 5.801977,23.393966 13.349322,50.06062 l 13.722446,48.484832 69.198464,55.46456 c 57.6758,46.22884 69.42177,56.26254 70.53955,60.25658 l 1.3411,4.792 h 12.1444 12.14441 z m 129.32787,44.9723 37.09266,-14.83512 41.14449,-35.673 41.14448,-35.673 16.51867,-51.598205 c 9.08525,-28.379019 16.35692,-51.798851 16.1593,-52.044078 -0.6427,-0.797511 -108.97779,73.627042 -112.09372,77.006662 -1.66351,1.804347 -15.20994,24.463201 -30.10307,50.353021 -19.21485,33.40254 -30.43273,51.21387 -38.62888,61.33356 -6.35271,7.84363 -11.55041,14.64457 -11.55041,15.1132 0,1.89088 4.71692,0.25491 40.31648,-13.98304 z M 72.556606,188.06758 c 2.600726,-2.87376 2.532586,-3.28036 -2.396661,-14.30137 l -5.073509,-11.34352 -18.385855,-8.45493 c -10.112222,-4.65021 -19.491067,-8.49893 -20.841877,-8.55274 -3.751758,-0.14942 -26.30952466,10.42295 -26.19665191,12.27785 0.0546208,0.89744 1.91537031,7.60327 4.13501781,14.90185 l 4.0357236,13.27013 24.7883225,0.40505 c 18.951237,0.30965 25.519623,0.91727 27.893939,2.5803 4.303877,3.01455 8.873978,2.71753 12.041551,-0.78262 z m 407.636524,-13.2535 c 11.73491,-1.65941 21.77922,-3.50112 22.32071,-4.09268 1.8267,-1.99564 11.74819,-25.78285 11.04652,-26.48449 -0.91403,-0.91402 -44.07194,8.2519 -45.26915,9.6143 -1.99119,2.26593 -16.06936,23.82019 -16.06936,24.60284 0,0.45756 1.49292,0.50458 3.31758,0.10453 1.82462,-0.40008 12.9188,-2.08509 24.6537,-3.74448 z M 192.19317,63.116092 c -0.39738,-1.419177 -1.89205,-10.969538 -3.32149,-21.223036 L 186.27273,23.250327 169.47649,11.90266 C 160.23856,5.6614413 152.45331,0.78193914 152.17593,1.0593153 c -0.27739,0.2773786 1.59819,10.7591907 4.16792,23.2929167 l 4.67224,22.788596 14.7446,9.230334 c 8.10953,5.076685 15.28693,9.251682 15.9498,9.277782 0.66285,0.0261 0.88008,-1.113688 0.48268,-2.532852 z M 365.6039,36.944429 379.56952,23.674295 380.59767,3.7690887 c 0.56547,-10.9478627 1.38946,-21.1448457 1.8311,-22.6599587 0.45326,-1.555028 0.14303,-2.51824 -0.71247,-2.211689 -3.76258,1.348347 -35.65668,30.1028424 -35.66617,32.155241 -0.0365,7.905331 3.60335,39.920838 4.49969,39.578093 0.59865,-0.228916 7.37297,-6.38777 15.05408,-13.686346 z"
       id="path2279"
       inkscape:connector-curvature="0" />
  </g>
</svg>
